# xmcd
#
# Track frame offsets:
#	183
#	14140
#	26450
#	39318
#	52570
#	62000
#	73145
#	87183
#	99355
#	108778
#	121523
#	136845
#
# Disc length: 1979 seconds
#
# Revision: 1
# Processed by: cddbd v1.5.2PL0 Copyright (c) Steve Scherf et al.
# Submitted via: EZCDAudioConverter 7.0.8.1
#
DISCID=8a07b90c
DTITLE=Brothers Four - GREEN FIELDS
DYEAR=1900
DGENRE=pop
TTITLE0=Greenfields
TTITLE1=Seven Daffodils
TTITLE2=Green Leaves Of Summer
TTITLE3=Try to Remember
TTITLE4=Fifty Five Days At Peking
TTITLE5=Yellow Bird
TTITLE6=Lady Greensleeleeves
TTITLE7=Four Strong Winds
TTITLE8=San Fracisco Bay Bliues
TTITLE9=Five Hundred Miles
TTITLE10=Don't Think Twice
TTITLE11=This Land Is Your Land
EXTD=
EXTT0=
EXTT1=
EXTT2=
EXTT3=
EXTT4=
EXTT5=
EXTT6=
EXTT7=
EXTT8=
EXTT9=
EXTT10=
EXTT11=
PLAYORDER=
